<?xml version="1.0" encoding="UTF-8"?>
<svg width="24px" height="24px" version="1.1" viewBox="0 0 24 24" xmlns="http://www.w3.org/2000/svg">
  <title>kindergarten-m</title>
  <g id="Page-2:-Night" fill="none" fill-rule="evenodd" opacity=".6">
    <g id="kindergarten-m" fill-rule="nonzero">
      <path id="Oval" d="m24 12a12 12 0 01-12 12 12 12 0 01-12-12 12 12 0 0112-12 12 12 0 0112 12z" fill="#fff"/>
      <path d="m23 12a11 11 0 01-11 11 11 11 0 01-11-11 11 11 0 0111-11 11 11 0 0111 11z" fill="#717065"/>
      <g id="rocking-horse" transform="translate(5 5)" fill="#fff">
        <path id="Shape" d="m13.8626 3.04888-1.2195-1.80504.188399-.734152c.02507-.0978633.0081-.20177-.04692-.286562-.05502-.084793-.14298-.142652-.242621-.159578-.971498-.165211-1.8013-.0080664-2.46624.468918-1.24584.89373-1.53759 2.66831-1.64743 3.35502h-3.62742c-.219953 0-.443488.033496-.662949.09893-.186566-.601235-.742137-1.03863-1.39683-1.03863h-.451774c-.817058 0-1.4697.666777-1.4697 1.48386v3.30701c0 .138906.0735273.265508.19868.325691.049848.024008.100324.035738.153562.035738.080527 0 .15884-.026879.224109-.079051 1.61583-2.06437 1.61016 1.33593 2.06834 2.61513-.681543-.248774-1.24972-.573508-1.63775-.941746-.364574-.345707-.933051-.389512-1.35166-.104262-.273246.18632-.445102.482289-.471434.812055-.0260586.326074.0946094.641511.330914.865238.605117.573727 1.39918 1.04382 2.36012 1.39727 1.20332.44223 2.60879.675992 4.06451.675992 1.45548 0 2.86084-.233762 4.06421-.675992.960586-.353145 1.75459-.823184 2.3599-1.39705.236524-.223891.357192-.539356.331133-.86543-.02636-.329766-.19816-.625734-.471324-.812-.181289-.123648-.393203-.189-.612828-.189-.276719 0-.539028.104098-.738828.293262-.384235.36441-.944618.686519-1.61645.934308.55073-1.37189 1.10909-2.78819 1.10909-4.17968 0-1.58561.365039-1.96465.521965-2.05406.224082-.127613.540832.021383.71009.121762.297582.176094.673695.141395.935949-.08657l.371793-.323723c.306004-.266109.36586-.720644.138906-1.05766zm-7.13992 5.32314h.088867c.866004 0 .838934.809266.838934.875547v1.88962c-.578266.04613-1.19271.0458-1.77097-.00082v-1.8888c0-.03675-.024144-.875547.843172-.875547z"/>
        <path d="m12.3722 2.27475a1 1 0 01-1 1 1 1 0 01-1-1 1 1 0 011-1 1 1 0 011 1z"/>
      </g>
    </g>
  </g>
  <g fill-opacity="0" stroke-width=".0384">
    <path d="m9.72341 15.9581c-.185563-.036936-.351796-.082949-.369408-.102251-.046396-.050846-.424977-1.13032-.631801-1.80149-.2302-.747035-.462914-1.67293-.583144-2.32014-.109138-.587508-.0955729-.77306.0821591-1.1238.205973-.406467.812493-.860217 1.25107-.93595l.141088-.024363.023321.186127c.118372.944724.669577 1.61892 1.5377 1.88082.32184.09709 1.09896.09709 1.4208 0 .747111-.225391 1.32233-.826784 1.49616-1.56425.03196-.135578.05821-.426302.05859-.648841.0015-.903308.322411-2.0608.750392-2.70698.440178-.664592 1.13749-1.05311 1.89453-1.05556.19534-.0006321.204829.00384.182106.085733-.01318.04752-.04462.192057-.06985.321194l-.04588.234794-.136231-.057068c-.176401-.073897-.558682-.073132-.736789.00147-.201905.084574-.437615.312133-.537903.519302-.104258.215369-.116034.604834-.02469.816696.263142.61035 1.05445.808107 1.59223.397918.177939-.135721.326273-.408136.353906-.64995l.02342-.204921.432506.63988c.237878.351934.432278.649544.432.661356-.000269.011812-.09397.102164-.208197.200783l-.20769.179307-.26271-.12081c-.212836-.097871-.326693-.124131-.59977-.138326-.318511-.016557-.350688-.010814-.584596.104338-.288974.142262-.461459.333461-.634598.703449-.18225.389459-.264626.862206-.306156 1.75699-.05037 1.0852-.144798 1.59333-.482435 2.59604-.150902.448147-.768457 2.04686-.804646 2.08305-.0139.0139-.35797.08754-.642506.137501l-.144.02529v-.99825c0-.580423-.01776-1.08342-.04244-1.20174-.101658-.487479-.407795-.905402-.785668-1.07255-.22947-.101506-.708153-.151047-1.08874-.11268-.595173.06-.968675.33582-1.19943.885743-.08465.201738-.0892.262382-.101541 1.3536-.0096.849067-.02458 1.14154-.05835 1.13905-.02499-.0018-.197257-.03357-.38282-.07051z"/>
    <path d="m9.72341 15.9581c-.185563-.036936-.351796-.082949-.369408-.102251-.046396-.050846-.424977-1.13032-.631801-1.80149-.2302-.747035-.462914-1.67293-.583144-2.32014-.109138-.587508-.0955729-.77306.0821591-1.1238.205973-.406467.812493-.860217 1.25107-.93595l.141088-.024363.023321.186127c.118372.944724.669577 1.61892 1.5377 1.88082.32184.09709 1.09896.09709 1.4208 0 .747111-.225391 1.32233-.826784 1.49616-1.56425.03196-.135578.05821-.426302.05859-.648841.0015-.903308.322411-2.0608.750392-2.70698.440178-.664592 1.13749-1.05311 1.89453-1.05556.19534-.0006321.204829.00384.182106.085733-.01318.04752-.04462.192057-.06985.321194l-.04588.234794-.136231-.057068c-.176401-.073897-.558682-.073132-.736789.00147-.201905.084574-.437615.312133-.537903.519302-.104258.215369-.116034.604834-.02469.816696.263142.61035 1.05445.808107 1.59223.397918.177939-.135721.326273-.408136.353906-.64995l.02342-.204921.432506.63988c.237878.351934.432278.649544.432.661356-.000269.011812-.09397.102164-.208197.200783l-.20769.179307-.26271-.12081c-.212836-.097871-.326693-.124131-.59977-.138326-.318511-.016557-.350688-.010814-.584596.104338-.288974.142262-.461459.333461-.634598.703449-.18225.389459-.264626.862206-.306156 1.75699-.05037 1.0852-.144798 1.59333-.482435 2.59604-.150902.448147-.768457 2.04686-.804646 2.08305-.0139.0139-.35797.08754-.642506.137501l-.144.02529v-.99825c0-.580423-.01776-1.08342-.04244-1.20174-.101658-.487479-.407795-.905402-.785668-1.07255-.22947-.101506-.708153-.151047-1.08874-.11268-.595173.06-.968675.33582-1.19943.885743-.08465.201738-.0892.262382-.101541 1.3536-.0096.849067-.02458 1.14154-.05835 1.13905-.02499-.0018-.197257-.03357-.38282-.07051z"/>
    <path d="m9.72341 15.9581c-.185563-.036936-.351796-.082949-.369408-.102251-.046396-.050846-.424977-1.13032-.631801-1.80149-.2302-.747035-.462914-1.67293-.583144-2.32014-.109138-.587508-.0955729-.77306.0821591-1.1238.205973-.406467.812493-.860217 1.25107-.93595l.141088-.024363.023321.186127c.118372.944724.669577 1.61892 1.5377 1.88082.32184.09709 1.09896.09709 1.4208 0 .747111-.225391 1.32233-.826784 1.49616-1.56425.03196-.135578.05821-.426302.05859-.648841.0015-.903308.322411-2.0608.750392-2.70698.440178-.664592 1.13749-1.05311 1.89453-1.05556.19534-.0006321.204829.00384.182106.085733-.01318.04752-.04462.192057-.06985.321194l-.04588.234794-.136231-.057068c-.176401-.073897-.558682-.073132-.736789.00147-.201905.084574-.437615.312133-.537903.519302-.104258.215369-.116034.604834-.02469.816696.263142.61035 1.05445.808107 1.59223.397918.177939-.135721.326273-.408136.353906-.64995l.02342-.204921.432506.63988c.237878.351934.432278.649544.432.661356-.000269.011812-.09397.102164-.208197.200783l-.20769.179307-.26271-.12081c-.212836-.097871-.326693-.124131-.59977-.138326-.318511-.016557-.350688-.010814-.584596.104338-.288974.142262-.461459.333461-.634598.703449-.18225.389459-.264626.862206-.306156 1.75699-.05037 1.0852-.144798 1.59333-.482435 2.59604-.150902.448147-.768457 2.04686-.804646 2.08305-.0139.0139-.35797.08754-.642506.137501l-.144.02529v-.99825c0-.580423-.01776-1.08342-.04244-1.20174-.101658-.487479-.407795-.905402-.785668-1.07255-.22947-.101506-.708153-.151047-1.08874-.11268-.595173.06-.968675.33582-1.19943.885743-.08465.201738-.0892.262382-.101541 1.3536-.0096.849067-.02458 1.14154-.05835 1.13905-.02499-.0018-.197257-.03357-.38282-.07051z"/>
    <path d="m9.72341 15.9581c-.185563-.036936-.351796-.082949-.369408-.102251-.046396-.050846-.424977-1.13032-.631801-1.80149-.2302-.747035-.462914-1.67293-.583144-2.32014-.109138-.587508-.0955729-.77306.0821591-1.1238.205973-.406467.812493-.860217 1.25107-.93595l.141088-.024363.023321.186127c.118372.944724.669577 1.61892 1.5377 1.88082.32184.09709 1.09896.09709 1.4208 0 .747111-.225391 1.32233-.826784 1.49616-1.56425.03196-.135578.05821-.426302.05859-.648841.0015-.903308.322411-2.0608.750392-2.70698.440178-.664592 1.13749-1.05311 1.89453-1.05556.19534-.0006321.204829.00384.182106.085733-.01318.04752-.04462.192057-.06985.321194l-.04588.234794-.136231-.057068c-.176401-.073897-.558682-.073132-.736789.00147-.201905.084574-.437615.312133-.537903.519302-.104258.215369-.116034.604834-.02469.816696.263142.61035 1.05445.808107 1.59223.397918.177939-.135721.326273-.408136.353906-.64995l.02342-.204921.432506.63988c.237878.351934.432278.649544.432.661356-.000269.011812-.09397.102164-.208197.200783l-.20769.179307-.26271-.12081c-.212836-.097871-.326693-.124131-.59977-.138326-.318511-.016557-.350688-.010814-.584596.104338-.288974.142262-.461459.333461-.634598.703449-.18225.389459-.264626.862206-.306156 1.75699-.05037 1.0852-.144798 1.59333-.482435 2.59604-.150902.448147-.768457 2.04686-.804646 2.08305-.0139.0139-.35797.08754-.642506.137501l-.144.02529v-.99825c0-.580423-.01776-1.08342-.04244-1.20174-.101658-.487479-.407795-.905402-.785668-1.07255-.22947-.101506-.708153-.151047-1.08874-.11268-.595173.06-.968675.33582-1.19943.885743-.08465.201738-.0892.262382-.101541 1.3536-.0096.849067-.02458 1.14154-.05835 1.13905-.02499-.0018-.197257-.03357-.38282-.07051z"/>
    <path d="m8.35253 17.3021c-.185563-.036936-.351796-.082949-.369408-.102251-.046396-.050846-.424977-1.13032-.631801-1.80149-.2302-.747035-.462914-1.67293-.583144-2.32014-.109138-.587508-.095573-.77306.082159-1.1238.205973-.406467.812493-.860217 1.25107-.93595l.141088-.02436.023321.186127c.118372.944724.669577 1.61892 1.5377 1.88082.32184.09709 1.09896.09709 1.4208 0 .747111-.225391 1.32233-.826784 1.49616-1.56425.03196-.135578.05821-.426302.05859-.648841.0015-.903308.322411-2.0608.750392-2.70698.440178-.664592 1.13749-1.05311 1.89453-1.05556.19534-.0006321.204829.00384.182106.085733-.01318.04752-.04462.192057-.06985.321194l-.04588.234791-.136231-.057068c-.176401-.073897-.558682-.073132-.736789.00147-.201905.084574-.437615.312133-.537903.519302-.104258.215369-.116034.604834-.02469.816696.263142.61035 1.05445.808107 1.59223.397918.177939-.135721.326273-.408136.353906-.64995l.02342-.204921.432506.63988c.237878.351934.432278.649544.432.661356-.000269.011812-.09397.102164-.208197.200783l-.20769.179307-.26271-.12081c-.212836-.09787-.326693-.124131-.59977-.138326-.318511-.016557-.350688-.010814-.584596.104338-.288974.142261-.461459.333461-.634598.703449-.18225.389459-.264626.862206-.306156 1.75699-.05037 1.0852-.144798 1.59333-.482435 2.59604-.150902.448147-.768457 2.04686-.804646 2.08305-.0139.0139-.35797.08754-.642506.137501l-.144.02529v-.99825c0-.580423-.01776-1.08342-.04244-1.20174-.101658-.487479-.407795-.905402-.785668-1.07255-.22947-.101506-.708153-.151047-1.08874-.11268-.595173.06-.968675.33582-1.19943.885743-.08465.201738-.0892.262382-.101541 1.3536-.0096.849067-.02458 1.14154-.05835 1.13905-.02499-.0018-.197257-.03357-.38282-.07051z"/>
  </g>
</svg>
